<?xml version="1.0" standalone="no"?>
<!DOCTYPE svg PUBLIC "-//W3C//DTD SVG 20010904//EN"
 "http://www.w3.org/TR/2001/REC-SVG-20010904/DTD/svg10.dtd">
<svg version="1.0" xmlns="http://www.w3.org/2000/svg"
 width="512.000000pt" height="512.000000pt" viewBox="0 0 512.000000 512.000000"
 preserveAspectRatio="xMidYMid meet">

<g transform="translate(0.000000,512.000000) scale(0.100000,-0.100000)"
fill="#000000" stroke="none">
<path d="M1 3918 c1 -736 5 -1168 10 -1113 44 462 222 916 510 1302 94 125
366 397 489 490 389 290 843 468 1305 512 55 5 -377 9 -1112 10 l-1203 1 1
-1202z"/>
<path d="M2750 5113 c324 -31 575 -94 840 -210 312 -138 568 -318 815 -574
412 -428 657 -973 708 -1574 2 -22 4 501 5 1163 l2 1202 -1202 -2 c-662 0
-1187 -3 -1168 -5z"/>
<path d="M1735 3765 c-354 -33 -729 -110 -830 -170 -123 -71 -152 -251 -60
-371 34 -44 117 -84 176 -84 27 0 120 18 208 39 688 170 1571 137 2288 -85
161 -50 315 -113 480 -199 130 -68 150 -75 201 -75 106 1 196 68 226 171 20
66 20 82 0 148 -30 102 -126 171 -406 295 -353 155 -754 258 -1233 317 -220
27 -832 35 -1050 14z"/>
<path d="M1805 2889 c-284 -28 -640 -100 -735 -149 -146 -74 -137 -302 14
-371 58 -26 83 -24 258 21 580 148 1250 123 1840 -67 180 -57 310 -112 502
-212 171 -88 199 -95 271 -62 70 32 125 113 125 187 0 49 -31 121 -67 156 -43
41 -163 111 -303 176 -335 156 -673 251 -1092 308 -134 18 -676 27 -813 13z"/>
<path d="M1 1203 l-1 -1203 1203 2 c661 1 1184 3 1162 5 -493 42 -954 217
-1352 514 -126 94 -398 366 -492 492 -288 386 -466 840 -510 1302 -5 55 -9
-377 -10 -1112z"/>
<path d="M5110 2354 c0 -128 -58 -414 -126 -614 -51 -151 -174 -410 -259 -544
-177 -280 -436 -551 -706 -738 -374 -260 -781 -405 -1269 -451 -19 -2 506 -5
1168 -5 l1202 -2 0 1200 c0 660 -2 1200 -5 1200 -3 0 -5 -21 -5 -46z"/>
<path d="M2040 2063 c-331 -14 -834 -92 -898 -140 -42 -31 -64 -68 -69 -116
-7 -59 10 -106 53 -148 33 -32 39 -34 102 -33 37 0 110 10 162 21 406 91 899
109 1270 47 247 -41 443 -109 720 -247 147 -73 193 -92 226 -91 137 3 199 169
103 279 -34 38 -159 113 -291 174 -221 101 -504 184 -756 221 -135 19 -435 42
-517 38 -22 -1 -69 -3 -105 -5z"/>
</g>
</svg>
